<?xml version="1.0" encoding="utf-8"?>
<!-- Generator: Adobe Illustrator 21.0.2, SVG Export Plug-In . SVG Version: 6.00 Build 0)  -->
<svg version="1.1" baseProfile="tiny" id="Layer_1" xmlns="http://www.w3.org/2000/svg" xmlns:xlink="http://www.w3.org/1999/xlink"
	 x="0px" y="0px" viewBox="0 0 50 78" overflow="scroll" xml:space="preserve">
<g>
	<path fill="#DCAA00" d="M25,0.6C11.3,0.6,0.3,11.5,0,25.1h14.8c0.1-5.5,4.6-9.9,10.1-9.9c5.6,0,10.2,4.5,10.2,10.2
		c0,0.6-0.1,1.1-0.2,1.7c3.5,1.4,6.8,3.5,9.6,6.2c2.3,2.3,4.1,4.9,5.4,7.8V25.6C50,11.8,38.8,0.6,25,0.6z"/>
	<path fill="#5F605F" d="M25,27.8H0v25c0,13.8,11.2,25,25,25c13.8,0,25-11.2,25-25S38.8,27.8,25,27.8z M25,62.9
		c-5.6,0-10.2-4.5-10.2-10.2c0-5.6,4.5-10.2,10.2-10.2c5.6,0,10.2,4.5,10.2,10.2C35.2,58.4,30.6,62.9,25,62.9z"/>
</g>
</svg>
