<?xml version="1.0" encoding="utf-8"?>
<!-- Generator: Adobe Illustrator 21.0.2, SVG Export Plug-In . SVG Version: 6.00 Build 0)  -->
<svg version="1.1" baseProfile="tiny" id="Layer_1" xmlns="http://www.w3.org/2000/svg" xmlns:xlink="http://www.w3.org/1999/xlink"
	 x="0px" y="0px" viewBox="0 0 170 50" overflow="scroll" xml:space="preserve">
<g>
	<path fill="#DCAA00" d="M17.7,1C9.4,1,2.7,7.6,2.6,15.9h9c0.1-3.3,2.8-6,6.1-6c3.4,0,6.1,2.8,6.1,6.1c0,0.3,0,0.7-0.1,1
		c2.1,0.8,4.1,2.1,5.8,3.8c1.4,1.4,2.5,3,3.3,4.7v-9.3C32.8,7.8,26,1,17.7,1z"/>
	<path fill="#5F605F" d="M17.7,17.5H2.6v15.1c0,8.4,6.8,15.1,15.1,15.1c8.4,0,15.1-6.8,15.1-15.1C32.8,24.2,26,17.5,17.7,17.5z
		 M17.7,38.7c-3.4,0-6.1-2.8-6.1-6.1c0-3.4,2.8-6.1,6.1-6.1c3.4,0,6.1,2.8,6.1,6.1C23.8,36,21.1,38.7,17.7,38.7z"/>
	<path fill="#DCAA00" d="M57.8,31.3c0,1.7,0.2,2.9,0.7,3.7c-0.4,0.1-0.7,0.3-1,0.3c-0.3,0.1-0.6,0.1-1,0.1c-0.7,0-1.3-0.1-1.7-0.4
		s-0.6-0.7-0.7-1.3c-0.5,0.5-1,0.9-1.8,1.2c-0.7,0.3-1.6,0.5-2.7,0.5c-0.6,0-1.1-0.1-1.7-0.2c-0.6-0.2-1.1-0.4-1.5-0.8
		c-0.5-0.4-0.8-0.8-1.1-1.4s-0.4-1.3-0.4-2.2c0-1.1,0.3-2,0.8-2.6c0.5-0.7,1.1-1.2,1.9-1.6c0.8-0.4,1.6-0.7,2.5-0.8
		c0.9-0.1,1.7-0.2,2.4-0.3c0.2,0,0.5,0,0.7,0s0.5,0,0.7,0v-0.6c0-0.8-0.2-1.4-0.6-1.7c-0.4-0.3-1.1-0.5-2-0.5s-1.7,0.1-2.4,0.4
		s-1.4,0.6-2,1c-0.3-0.4-0.5-0.8-0.7-1.2c-0.2-0.4-0.3-0.8-0.3-1c0-0.3,0.2-0.6,0.5-0.8c0.3-0.3,0.8-0.5,1.3-0.8
		c0.6-0.2,1.2-0.4,1.9-0.5s1.5-0.2,2.3-0.2c1.1,0,2,0.1,2.8,0.3c0.8,0.2,1.4,0.6,1.9,1.1s0.8,1.1,1,1.8c0.2,0.7,0.3,1.6,0.3,2.6v5.9
		H57.8z M53.8,27.7c-0.1,0-0.3,0-0.4,0c-0.1,0-0.3,0-0.4,0c-0.5,0-1,0.1-1.5,0.2s-0.9,0.2-1.3,0.4c-0.4,0.2-0.7,0.5-1,0.8
		c-0.2,0.3-0.4,0.8-0.4,1.3c0,0.6,0.2,1.1,0.5,1.5s0.9,0.6,1.7,0.6c0.4,0,0.8-0.1,1.1-0.2s0.7-0.2,0.9-0.4c0.3-0.2,0.5-0.4,0.6-0.6
		c0.2-0.2,0.2-0.4,0.2-0.6L53.8,27.7L53.8,27.7z"/>
	<path fill="#DCAA00" d="M68.8,32.3c0.5,0,0.9-0.1,1.2-0.2c0.4-0.1,0.7-0.2,1-0.4c0.3-0.2,0.5-0.3,0.7-0.5s0.4-0.3,0.5-0.5
		c0.1,0.1,0.2,0.3,0.4,0.5c0.1,0.2,0.2,0.4,0.3,0.6s0.2,0.4,0.2,0.7c0.1,0.2,0.1,0.4,0.1,0.6s0,0.4-0.1,0.6s-0.3,0.4-0.5,0.6
		c-0.4,0.3-0.9,0.6-1.7,0.8c-0.7,0.3-1.6,0.4-2.7,0.4c-0.7,0-1.5-0.1-2.4-0.3c-0.9-0.2-1.7-0.6-2.4-1.2s-1.4-1.4-1.8-2.5
		c-0.5-1.1-0.7-2.4-0.7-4.1c0-1.6,0.3-2.9,0.8-3.9s1.1-1.8,1.9-2.4c0.8-0.6,1.6-1,2.4-1.2c0.8-0.2,1.6-0.3,2.3-0.3
		c0.9,0,1.6,0.1,2.3,0.3c0.7,0.2,1.3,0.4,1.8,0.8c0.4,0.3,0.7,0.5,0.8,0.7c0.2,0.2,0.2,0.5,0.2,0.8s-0.1,0.7-0.3,1.1
		s-0.4,0.8-0.7,1.2c-0.3-0.4-0.8-0.7-1.4-1.1c-0.6-0.4-1.3-0.5-2.1-0.5c-1.4,0-2.3,0.4-2.9,1.3c-0.6,0.9-0.9,2-0.9,3.3
		c0,0.7,0.1,1.3,0.2,1.9c0.1,0.6,0.3,1.1,0.6,1.6c0.3,0.4,0.7,0.8,1.2,1C67.6,32.2,68.1,32.3,68.8,32.3z"/>
	<path fill="#DCAA00" d="M83.3,32.3c0.5,0,0.9-0.1,1.2-0.2c0.4-0.1,0.7-0.2,1-0.4c0.3-0.2,0.5-0.3,0.7-0.5s0.4-0.3,0.5-0.5
		c0.1,0.1,0.2,0.3,0.4,0.5c0.1,0.2,0.2,0.4,0.3,0.6s0.2,0.4,0.2,0.7c0.1,0.2,0.1,0.4,0.1,0.6s0,0.4-0.1,0.6s-0.3,0.4-0.5,0.6
		c-0.4,0.3-0.9,0.6-1.7,0.8c-0.7,0.3-1.6,0.4-2.7,0.4c-0.7,0-1.5-0.1-2.4-0.3c-0.9-0.2-1.7-0.6-2.4-1.2s-1.4-1.4-1.8-2.5
		c-0.5-1.1-0.7-2.4-0.7-4.1c0-1.6,0.3-2.9,0.8-3.9s1.1-1.8,1.9-2.4c0.8-0.6,1.6-1,2.4-1.2c0.8-0.2,1.6-0.3,2.3-0.3
		c0.9,0,1.6,0.1,2.3,0.3c0.7,0.2,1.3,0.4,1.8,0.8c0.4,0.3,0.7,0.5,0.8,0.7c0.2,0.2,0.2,0.5,0.2,0.8s-0.1,0.7-0.3,1.1
		s-0.4,0.8-0.7,1.2c-0.3-0.4-0.8-0.7-1.4-1.1c-0.6-0.4-1.3-0.5-2.1-0.5c-1.4,0-2.3,0.4-2.9,1.3c-0.6,0.9-0.9,2-0.9,3.3
		c0,0.7,0.1,1.3,0.2,1.9c0.1,0.6,0.3,1.1,0.6,1.6c0.3,0.4,0.7,0.8,1.2,1C82,32.2,82.6,32.3,83.3,32.3z"/>
	<path fill="#DCAA00" d="M103.8,35H101c-0.5,0-0.8-0.1-1-0.4c-0.1-0.3-0.2-0.7-0.2-1.3c-0.3,0.5-0.9,0.9-1.6,1.4
		c-0.7,0.4-1.7,0.6-2.9,0.6c-1.5,0-2.5-0.3-3.2-0.9S91,33,90.7,32c-0.1-0.5-0.2-1-0.2-1.6s0-1.1,0-1.7V20c0,0,0.2,0,0.5-0.1
		c0.3,0,0.6,0,0.9,0c0.3,0,0.7,0,1,0.1s0.6,0.2,0.9,0.4c0.3,0.2,0.5,0.4,0.6,0.8c0.2,0.3,0.2,0.8,0.2,1.3v6.2c0,0.5,0,0.9,0,1.3
		s0.1,0.7,0.2,1c0.1,0.3,0.3,0.5,0.6,0.7s0.7,0.2,1.2,0.2c0.8,0,1.4-0.2,2-0.5c0.5-0.3,0.8-0.7,0.8-1.2V20c0,0,0.2,0,0.5-0.1
		c0.3,0,0.6,0,0.9,0c0.3,0,0.7,0,1,0.1s0.6,0.2,0.9,0.4c0.3,0.2,0.5,0.5,0.6,0.8c0.2,0.4,0.2,0.8,0.2,1.3V35H103.8z"/>
	<path fill="#5F605F" d="M122.7,28.8c0,1.2-0.2,2.2-0.6,3c-0.4,0.8-1,1.4-1.7,1.9s-1.6,0.8-2.7,1c-1,0.2-2.2,0.3-3.5,0.3H108V13.9
		c1-0.1,2-0.2,3-0.3c0.9-0.1,1.8-0.1,2.7-0.1c1.5,0,2.8,0.1,3.9,0.4c1,0.2,1.9,0.6,2.5,1.1s1.1,1,1.3,1.7s0.4,1.4,0.4,2.3
		c0,0.7-0.1,1.3-0.3,1.8s-0.4,1-0.8,1.4c-0.3,0.4-0.6,0.7-1,1s-0.7,0.4-1,0.6c0.4,0.1,0.8,0.3,1.3,0.5s0.9,0.5,1.3,0.9
		c0.4,0.4,0.8,0.9,1,1.5C122.6,27.2,122.7,27.9,122.7,28.8z M117.5,19.2c0-1-0.3-1.7-1-2.1s-1.6-0.6-2.7-0.6c-0.4,0-0.7,0-1,0
		c-0.2,0-0.4,0-0.6,0.1v5.9h2c1,0,1.8-0.3,2.4-0.9C117.2,21.1,117.5,20.3,117.5,19.2z M114,31.9c0.7,0,1.3,0,1.9-0.1
		c0.6-0.1,1-0.2,1.4-0.5c0.4-0.2,0.7-0.6,0.9-1s0.3-1,0.3-1.6c0-1.1-0.4-2-1.1-2.4c-0.7-0.5-1.7-0.7-2.9-0.7h-2.2V32L114,31.9
		L114,31.9z"/>
	<path fill="#5F605F" d="M126.2,13.8c0.3,0,0.6-0.1,0.8-0.1c0.3,0,0.5,0,0.6,0c0.3,0,0.6,0,0.9,0.1c0.3,0.1,0.6,0.2,0.9,0.4
		c0.3,0.2,0.5,0.4,0.7,0.7c0.2,0.3,0.3,0.7,0.3,1.3V35h-4.2V13.8z"/>
	<path fill="#5F605F" d="M139.4,17.3H133l0,0c0-0.3-0.1-0.5-0.1-0.6c0-0.2,0-0.4,0-0.6c0-0.6,0.2-1.1,0.6-1.6c0.4-0.5,1.1-0.7,2-0.7
		h14.4c0.1,0.4,0.1,0.9,0.1,1.4c0,0.6-0.2,1.1-0.6,1.5c-0.4,0.5-1,0.7-2,0.7h-3.9V35h-4.2V17.3H139.4z"/>
	<path fill="#5F605F" d="M151.8,35v-2.9l10.3-15h-10.2l0,0c0-0.2,0-0.4,0-0.6s0-0.4,0-0.6c0-0.6,0.2-1.1,0.6-1.5
		c0.4-0.4,1-0.7,2-0.7h11.3c0.5,0,0.9,0.1,1.1,0.3c0.2,0.2,0.3,0.5,0.3,1v1.6l-10.4,15h8.2c0.5,0,0.9,0.1,1.2,0.2s0.6,0.3,0.8,0.5
		s0.3,0.5,0.4,0.7s0.1,0.5,0.1,0.8c0,0.2,0,0.4,0,0.6s0,0.4,0,0.5h-15.7V35z"/>
</g>
</svg>
